<mxfile host="Electron" modified="2024-12-10T21:54:18.115Z" agent="Mozilla/5.0 (Windows NT 10.0; Win64; x64) AppleWebKit/537.36 (KHTML, like Gecko) draw.io/24.2.5 Chrome/120.0.6099.109 Electron/28.1.0 Safari/537.36" etag="AM5mH_xEUyYP6vGjC7t6" version="24.2.5" type="device">
  <diagram id="C5RBs43oDa-KdzZeNtuy" name="Page-1">
    <mxGraphModel dx="2314" dy="2365" grid="1" gridSize="10" guides="1" tooltips="1" connect="1" arrows="1" fold="1" page="1" pageScale="1" pageWidth="827" pageHeight="1169" math="0" shadow="0">
      <root>
        <mxCell id="WIyWlLk6GJQsqaUBKTNV-0" />
        <mxCell id="WIyWlLk6GJQsqaUBKTNV-1" parent="WIyWlLk6GJQsqaUBKTNV-0" />
        <mxCell id="FUf2oN58ZQ2NofXyOYGK-3" style="rounded=0;orthogonalLoop=1;jettySize=auto;html=1;noEdgeStyle=1;orthogonal=1;" parent="WIyWlLk6GJQsqaUBKTNV-1" source="FUf2oN58ZQ2NofXyOYGK-0" target="FUf2oN58ZQ2NofXyOYGK-2" edge="1">
          <mxGeometry relative="1" as="geometry">
            <Array as="points">
              <mxPoint x="407" y="42.5" />
              <mxPoint x="483" y="153.33333333333334" />
            </Array>
          </mxGeometry>
        </mxCell>
        <mxCell id="FUf2oN58ZQ2NofXyOYGK-45" style="rounded=0;orthogonalLoop=1;jettySize=auto;html=1;noEdgeStyle=1;orthogonal=1;" parent="WIyWlLk6GJQsqaUBKTNV-1" source="FUf2oN58ZQ2NofXyOYGK-0" target="FUf2oN58ZQ2NofXyOYGK-55" edge="1">
          <mxGeometry relative="1" as="geometry">
            <Array as="points">
              <mxPoint x="407" y="17.5" />
              <mxPoint x="445" y="67.5" />
              <mxPoint x="725" y="67.5" />
              <mxPoint x="725" y="67.5" />
              <mxPoint x="930" y="68" />
              <mxPoint x="983" y="276.25" />
            </Array>
          </mxGeometry>
        </mxCell>
        <mxCell id="FUf2oN58ZQ2NofXyOYGK-0" value="ODE Wrapper&lt;br&gt;---&lt;br&gt;(User interface)" style="rounded=0;whiteSpace=wrap;html=1;fillColor=#dae8fc;strokeColor=#6c8ebf;" parent="WIyWlLk6GJQsqaUBKTNV-1" vertex="1">
          <mxGeometry x="275" width="120" height="60" as="geometry" />
        </mxCell>
        <mxCell id="FUf2oN58ZQ2NofXyOYGK-8" style="rounded=0;orthogonalLoop=1;jettySize=auto;html=1;noEdgeStyle=1;orthogonal=1;" parent="WIyWlLk6GJQsqaUBKTNV-1" source="FUf2oN58ZQ2NofXyOYGK-2" target="FUf2oN58ZQ2NofXyOYGK-57" edge="1">
          <mxGeometry relative="1" as="geometry">
            <mxPoint x="437.5" y="500" as="targetPoint" />
            <Array as="points">
              <mxPoint x="687" y="206.66666666666666" />
              <mxPoint x="763" y="212.5" />
            </Array>
          </mxGeometry>
        </mxCell>
        <mxCell id="FUf2oN58ZQ2NofXyOYGK-84" style="edgeStyle=orthogonalEdgeStyle;rounded=0;orthogonalLoop=1;jettySize=auto;html=1;noEdgeStyle=1;orthogonal=1;" parent="WIyWlLk6GJQsqaUBKTNV-1" source="FUf2oN58ZQ2NofXyOYGK-2" target="FUf2oN58ZQ2NofXyOYGK-83" edge="1">
          <mxGeometry relative="1" as="geometry">
            <Array as="points">
              <mxPoint x="687" y="153.33333333333334" />
              <mxPoint x="725" y="135" />
              <mxPoint x="930" y="135" />
              <mxPoint x="945" y="60" />
              <mxPoint x="1165" y="60" />
              <mxPoint x="1165" y="60" />
              <mxPoint x="1425" y="60" />
              <mxPoint x="1463" y="125" />
            </Array>
          </mxGeometry>
        </mxCell>
        <mxCell id="FUf2oN58ZQ2NofXyOYGK-2" value="CV Data Controller&lt;br&gt;---&lt;br&gt;(Communicates with ODE &amp;amp; keeps records in Postgres DB)" style="rounded=0;whiteSpace=wrap;html=1;fillColor=#dae8fc;strokeColor=#6c8ebf;" parent="WIyWlLk6GJQsqaUBKTNV-1" vertex="1">
          <mxGeometry x="495" y="135" width="180" height="90" as="geometry" />
        </mxCell>
        <mxCell id="FUf2oN58ZQ2NofXyOYGK-86" style="edgeStyle=orthogonalEdgeStyle;rounded=0;orthogonalLoop=1;jettySize=auto;html=1;noEdgeStyle=1;orthogonal=1;" parent="WIyWlLk6GJQsqaUBKTNV-1" source="FUf2oN58ZQ2NofXyOYGK-4" target="FUf2oN58ZQ2NofXyOYGK-0" edge="1">
          <mxGeometry relative="1" as="geometry">
            <Array as="points">
              <mxPoint x="187" y="30" />
              <mxPoint x="263" y="17.5" />
            </Array>
          </mxGeometry>
        </mxCell>
        <mxCell id="FUf2oN58ZQ2NofXyOYGK-4" value="r&lt;span style=&quot;background-color: initial;&quot;&gt;equest for road&lt;/span&gt;&lt;div&gt;&lt;span style=&quot;background-color: initial;&quot;&gt;condition comes in&lt;/span&gt;&lt;/div&gt;" style="ellipse;shape=cloud;whiteSpace=wrap;html=1;" parent="WIyWlLk6GJQsqaUBKTNV-1" vertex="1">
          <mxGeometry y="-25" width="175" height="110" as="geometry" />
        </mxCell>
        <mxCell id="FUf2oN58ZQ2NofXyOYGK-21" style="rounded=0;orthogonalLoop=1;jettySize=auto;html=1;noEdgeStyle=1;orthogonal=1;" parent="WIyWlLk6GJQsqaUBKTNV-1" source="FUf2oN58ZQ2NofXyOYGK-57" target="FUf2oN58ZQ2NofXyOYGK-20" edge="1">
          <mxGeometry relative="1" as="geometry">
            <mxPoint x="437.5" y="580" as="sourcePoint" />
            <Array as="points">
              <mxPoint x="907" y="212.5" />
              <mxPoint x="983" y="195" />
            </Array>
          </mxGeometry>
        </mxCell>
        <mxCell id="FUf2oN58ZQ2NofXyOYGK-29" style="rounded=0;orthogonalLoop=1;jettySize=auto;html=1;noEdgeStyle=1;orthogonal=1;" parent="WIyWlLk6GJQsqaUBKTNV-1" source="FUf2oN58ZQ2NofXyOYGK-57" target="FUf2oN58ZQ2NofXyOYGK-55" edge="1">
          <mxGeometry relative="1" as="geometry">
            <mxPoint x="402.5" y="580" as="sourcePoint" />
            <Array as="points">
              <mxPoint x="907" y="237.5" />
              <mxPoint x="981" y="288.75" />
            </Array>
          </mxGeometry>
        </mxCell>
        <mxCell id="FUf2oN58ZQ2NofXyOYGK-85" style="edgeStyle=orthogonalEdgeStyle;rounded=0;orthogonalLoop=1;jettySize=auto;html=1;noEdgeStyle=1;orthogonal=1;" parent="WIyWlLk6GJQsqaUBKTNV-1" source="FUf2oN58ZQ2NofXyOYGK-11" target="FUf2oN58ZQ2NofXyOYGK-83" edge="1">
          <mxGeometry relative="1" as="geometry">
            <Array as="points">
              <mxPoint x="1387" y="225" />
              <mxPoint x="1463" y="160" />
            </Array>
          </mxGeometry>
        </mxCell>
        <mxCell id="FUf2oN58ZQ2NofXyOYGK-11" value="Logger Kafka Consumer&lt;br&gt;---&lt;br&gt;&lt;div&gt;(Designates held TIMs as active when ODE finishes processing them)&lt;/div&gt;" style="rounded=0;whiteSpace=wrap;html=1;fillColor=#dae8fc;strokeColor=#6c8ebf;" parent="WIyWlLk6GJQsqaUBKTNV-1" vertex="1">
          <mxGeometry x="1215" y="180" width="160" height="90" as="geometry" />
        </mxCell>
        <mxCell id="FUf2oN58ZQ2NofXyOYGK-13" value="MongoDB" style="shape=cylinder3;whiteSpace=wrap;html=1;boundedLbl=1;backgroundOutline=1;size=15;fillColor=#dae8fc;strokeColor=#6c8ebf;" parent="WIyWlLk6GJQsqaUBKTNV-1" vertex="1">
          <mxGeometry x="1475" y="290" width="60" height="80" as="geometry" />
        </mxCell>
        <mxCell id="FUf2oN58ZQ2NofXyOYGK-46" style="rounded=0;orthogonalLoop=1;jettySize=auto;html=1;noEdgeStyle=1;orthogonal=1;" parent="WIyWlLk6GJQsqaUBKTNV-1" source="FUf2oN58ZQ2NofXyOYGK-20" target="FUf2oN58ZQ2NofXyOYGK-11" edge="1">
          <mxGeometry relative="1" as="geometry">
            <Array as="points">
              <mxPoint x="1129" y="195" />
              <mxPoint x="1203" y="225" />
            </Array>
          </mxGeometry>
        </mxCell>
        <mxCell id="FUf2oN58ZQ2NofXyOYGK-53" style="rounded=0;orthogonalLoop=1;jettySize=auto;html=1;noEdgeStyle=1;orthogonal=1;" parent="WIyWlLk6GJQsqaUBKTNV-1" source="FUf2oN58ZQ2NofXyOYGK-20" target="FUf2oN58ZQ2NofXyOYGK-52" edge="1">
          <mxGeometry relative="1" as="geometry">
            <Array as="points">
              <mxPoint x="1127" y="218.33333333333334" />
              <mxPoint x="1203" y="330" />
            </Array>
          </mxGeometry>
        </mxCell>
        <mxCell id="FUf2oN58ZQ2NofXyOYGK-72" style="edgeStyle=orthogonalEdgeStyle;rounded=0;orthogonalLoop=1;jettySize=auto;html=1;noEdgeStyle=1;orthogonal=1;" parent="WIyWlLk6GJQsqaUBKTNV-1" source="FUf2oN58ZQ2NofXyOYGK-20" target="FUf2oN58ZQ2NofXyOYGK-38" edge="1">
          <mxGeometry relative="1" as="geometry">
            <Array as="points">
              <mxPoint x="1127" y="171.66666666666666" />
              <mxPoint x="1203" y="132.5" />
            </Array>
          </mxGeometry>
        </mxCell>
        <mxCell id="FUf2oN58ZQ2NofXyOYGK-20" value="Kafka" style="shape=cylinder3;whiteSpace=wrap;html=1;boundedLbl=1;backgroundOutline=1;size=15;fillColor=#f5f5f5;fontColor=#333333;strokeColor=#666666;" parent="WIyWlLk6GJQsqaUBKTNV-1" vertex="1">
          <mxGeometry x="1025" y="155" width="60" height="80" as="geometry" />
        </mxCell>
        <mxCell id="FUf2oN58ZQ2NofXyOYGK-32" style="rounded=0;orthogonalLoop=1;jettySize=auto;html=1;noEdgeStyle=1;orthogonal=1;" parent="WIyWlLk6GJQsqaUBKTNV-1" source="FUf2oN58ZQ2NofXyOYGK-30" target="FUf2oN58ZQ2NofXyOYGK-57" edge="1">
          <mxGeometry relative="1" as="geometry">
            <mxPoint x="402.5" y="500" as="targetPoint" />
            <Array as="points">
              <mxPoint x="189" y="261.25" />
              <mxPoint x="225" y="390" />
              <mxPoint x="445" y="390" />
              <mxPoint x="445" y="390" />
              <mxPoint x="725" y="390" />
              <mxPoint x="763" y="237.5" />
            </Array>
          </mxGeometry>
        </mxCell>
        <mxCell id="FUf2oN58ZQ2NofXyOYGK-34" style="rounded=0;orthogonalLoop=1;jettySize=auto;html=1;noEdgeStyle=1;orthogonal=1;" parent="WIyWlLk6GJQsqaUBKTNV-1" source="FUf2oN58ZQ2NofXyOYGK-30" target="FUf2oN58ZQ2NofXyOYGK-33" edge="1">
          <mxGeometry relative="1" as="geometry">
            <Array as="points">
              <mxPoint x="189" y="248.75" />
              <mxPoint x="263" y="120" />
            </Array>
          </mxGeometry>
        </mxCell>
        <mxCell id="FUf2oN58ZQ2NofXyOYGK-35" style="rounded=0;orthogonalLoop=1;jettySize=auto;html=1;noEdgeStyle=1;orthogonal=1;" parent="WIyWlLk6GJQsqaUBKTNV-1" source="FUf2oN58ZQ2NofXyOYGK-30" target="FUf2oN58ZQ2NofXyOYGK-0" edge="1">
          <mxGeometry relative="1" as="geometry">
            <Array as="points">
              <mxPoint x="187" y="236.25" />
              <mxPoint x="263" y="42.5" />
            </Array>
          </mxGeometry>
        </mxCell>
        <mxCell id="FUf2oN58ZQ2NofXyOYGK-48" style="rounded=0;orthogonalLoop=1;jettySize=auto;html=1;noEdgeStyle=1;orthogonal=1;" parent="WIyWlLk6GJQsqaUBKTNV-1" source="FUf2oN58ZQ2NofXyOYGK-30" target="FUf2oN58ZQ2NofXyOYGK-55" edge="1">
          <mxGeometry relative="1" as="geometry">
            <Array as="points">
              <mxPoint x="187" y="273.75" />
              <mxPoint x="225" y="420" />
              <mxPoint x="445" y="420" />
              <mxPoint x="445" y="420" />
              <mxPoint x="725" y="420" />
              <mxPoint x="725" y="420" />
              <mxPoint x="945" y="420" />
              <mxPoint x="983" y="313.75" />
            </Array>
          </mxGeometry>
        </mxCell>
        <mxCell id="FUf2oN58ZQ2NofXyOYGK-33" value="RSU Data Controller&lt;br&gt;---&lt;br&gt;(Interacts with RSUs)" style="rounded=0;whiteSpace=wrap;html=1;fillColor=#dae8fc;strokeColor=#6c8ebf;" parent="WIyWlLk6GJQsqaUBKTNV-1" vertex="1">
          <mxGeometry x="275" y="90" width="120" height="60" as="geometry" />
        </mxCell>
        <mxCell id="FUf2oN58ZQ2NofXyOYGK-37" style="rounded=0;orthogonalLoop=1;jettySize=auto;html=1;noEdgeStyle=1;orthogonal=1;" parent="WIyWlLk6GJQsqaUBKTNV-1" source="FUf2oN58ZQ2NofXyOYGK-36" target="FUf2oN58ZQ2NofXyOYGK-2" edge="1">
          <mxGeometry relative="1" as="geometry">
            <Array as="points">
              <mxPoint x="407" y="310" />
              <mxPoint x="483" y="206.66666666666666" />
            </Array>
          </mxGeometry>
        </mxCell>
        <mxCell id="FUf2oN58ZQ2NofXyOYGK-49" style="rounded=0;orthogonalLoop=1;jettySize=auto;html=1;noEdgeStyle=1;orthogonal=1;" parent="WIyWlLk6GJQsqaUBKTNV-1" source="FUf2oN58ZQ2NofXyOYGK-36" target="FUf2oN58ZQ2NofXyOYGK-55" edge="1">
          <mxGeometry relative="1" as="geometry">
            <Array as="points">
              <mxPoint x="407" y="340" />
              <mxPoint x="445" y="285" />
              <mxPoint x="725" y="285" />
              <mxPoint x="725" y="285" />
              <mxPoint x="945" y="285" />
              <mxPoint x="981" y="301.25" />
            </Array>
          </mxGeometry>
        </mxCell>
        <mxCell id="FUf2oN58ZQ2NofXyOYGK-36" value="Tim Refresh&lt;br&gt;---&lt;br&gt;(Ensures active TIMs do not expire)" style="rounded=0;whiteSpace=wrap;html=1;fillColor=#dae8fc;strokeColor=#6c8ebf;" parent="WIyWlLk6GJQsqaUBKTNV-1" vertex="1">
          <mxGeometry x="275" y="290" width="120" height="70" as="geometry" />
        </mxCell>
        <mxCell id="FUf2oN58ZQ2NofXyOYGK-39" style="rounded=0;orthogonalLoop=1;jettySize=auto;html=1;noEdgeStyle=1;orthogonal=1;" parent="WIyWlLk6GJQsqaUBKTNV-1" source="FUf2oN58ZQ2NofXyOYGK-38" target="FUf2oN58ZQ2NofXyOYGK-2" edge="1">
          <mxGeometry relative="1" as="geometry">
            <Array as="points">
              <mxPoint x="1203" y="107.5" />
              <mxPoint x="1165" y="125" />
              <mxPoint x="960" y="125" />
              <mxPoint x="945" y="165" />
              <mxPoint x="725" y="165" />
              <mxPoint x="689" y="180" />
            </Array>
          </mxGeometry>
        </mxCell>
        <mxCell id="FUf2oN58ZQ2NofXyOYGK-38" value="ODE Data Logger&lt;br&gt;---&lt;br&gt;&lt;div&gt;(Logs BSM data to Postgres DB)&lt;/div&gt;" style="rounded=0;whiteSpace=wrap;html=1;fillColor=#dae8fc;strokeColor=#6c8ebf;" parent="WIyWlLk6GJQsqaUBKTNV-1" vertex="1">
          <mxGeometry x="1230" y="90" width="130" height="60" as="geometry" />
        </mxCell>
        <mxCell id="FUf2oN58ZQ2NofXyOYGK-41" style="rounded=0;orthogonalLoop=1;jettySize=auto;html=1;noEdgeStyle=1;orthogonal=1;" parent="WIyWlLk6GJQsqaUBKTNV-1" source="FUf2oN58ZQ2NofXyOYGK-40" target="FUf2oN58ZQ2NofXyOYGK-2" edge="1">
          <mxGeometry relative="1" as="geometry">
            <Array as="points">
              <mxPoint x="407" y="220" />
              <mxPoint x="481" y="180" />
            </Array>
          </mxGeometry>
        </mxCell>
        <mxCell id="FUf2oN58ZQ2NofXyOYGK-40" value="Cert Expiration&lt;br&gt;---&lt;br&gt;(Records expiration dates in database)" style="rounded=0;whiteSpace=wrap;html=1;fillColor=#dae8fc;strokeColor=#6c8ebf;" parent="WIyWlLk6GJQsqaUBKTNV-1" vertex="1">
          <mxGeometry x="275" y="180" width="120" height="80" as="geometry" />
        </mxCell>
        <mxCell id="FUf2oN58ZQ2NofXyOYGK-54" style="rounded=0;orthogonalLoop=1;jettySize=auto;html=1;noEdgeStyle=1;orthogonal=1;" parent="WIyWlLk6GJQsqaUBKTNV-1" source="FUf2oN58ZQ2NofXyOYGK-52" target="FUf2oN58ZQ2NofXyOYGK-13" edge="1">
          <mxGeometry relative="1" as="geometry">
            <Array as="points">
              <mxPoint x="1387" y="330" />
              <mxPoint x="1463" y="330" />
            </Array>
          </mxGeometry>
        </mxCell>
        <mxCell id="FUf2oN58ZQ2NofXyOYGK-52" value="ODE Mongo Logger&lt;br&gt;---&lt;br&gt;(Logs copies of messages to Mongo DB)" style="rounded=0;whiteSpace=wrap;html=1;fillColor=#dae8fc;strokeColor=#6c8ebf;" parent="WIyWlLk6GJQsqaUBKTNV-1" vertex="1">
          <mxGeometry x="1220" y="300" width="150" height="60" as="geometry" />
        </mxCell>
        <mxCell id="FUf2oN58ZQ2NofXyOYGK-55" value="SDX" style="shape=trapezoid;perimeter=trapezoidPerimeter;whiteSpace=wrap;html=1;fixedSize=1;fillColor=#ffe6cc;strokeColor=#d79b00;" parent="WIyWlLk6GJQsqaUBKTNV-1" vertex="1">
          <mxGeometry x="995" y="265" width="120" height="60" as="geometry" />
        </mxCell>
        <mxCell id="FUf2oN58ZQ2NofXyOYGK-57" value="ODE" style="shape=trapezoid;perimeter=trapezoidPerimeter;whiteSpace=wrap;html=1;fixedSize=1;fillColor=#ffe6cc;strokeColor=#d79b00;" parent="WIyWlLk6GJQsqaUBKTNV-1" vertex="1">
          <mxGeometry x="775" y="195" width="120" height="60" as="geometry" />
        </mxCell>
        <mxCell id="FUf2oN58ZQ2NofXyOYGK-30" value="CV Data Tasks&lt;div&gt;---&lt;/div&gt;&lt;div&gt;(Initiates recurring tasks)&lt;/div&gt;" style="rounded=0;whiteSpace=wrap;html=1;fillColor=#dae8fc;strokeColor=#6c8ebf;" parent="WIyWlLk6GJQsqaUBKTNV-1" vertex="1">
          <mxGeometry x="27.5" y="225" width="120" height="60" as="geometry" />
        </mxCell>
        <mxCell id="FUf2oN58ZQ2NofXyOYGK-83" value="Postgres" style="shape=cylinder3;whiteSpace=wrap;html=1;boundedLbl=1;backgroundOutline=1;size=15;fillColor=#dae8fc;strokeColor=#6c8ebf;" parent="WIyWlLk6GJQsqaUBKTNV-1" vertex="1">
          <mxGeometry x="1475" y="102.5" width="60" height="80" as="geometry" />
        </mxCell>
      </root>
    </mxGraphModel>
  </diagram>
</mxfile>
